<svg xmlns:rdf="http://www.w3.org/1999/02/22-rdf-syntax-ns#" xmlns="http://www.w3.org/2000/svg" height="56.996mm" width="56.996mm" version="1.1" xmlns:cc="http://creativecommons.org/ns#" xmlns:dc="http://purl.org/dc/elements/1.1/" viewBox="0 0 201.95314 201.95508">
 <path style="fill:#4d4d4d" d="m100.98-0.02a100.98 100.98 0 0 0 -100.98 100.98 100.98 100.98 0 0 0 100.98 100.98 100.98 100.98 0 0 0 100.98 -100.98 100.98 100.98 0 0 0 -100.98 -100.98zm0 11.916a89.062 89.062 0 0 1 89.062 89.061 89.062 89.062 0 0 1 -89.062 89.062 89.062 89.062 0 0 1 -89.061 -89.062 89.062 89.062 0 0 1 89.061 -89.061z"/>
 <g style="fill:#4d4d4d">
  <path style="fill:#4d4d4d" d="m42.24 88.864q0 0.46387-0.5127 0.46387-1.9043 0-6.25-0.21973-4.0527-0.19531-6.25-0.14648l-1.7822 0.02441q-1.709 0.02441-1.8066 0.07324-0.48828 0.19531-0.48828 1.5381v5.8838q0 1.6602 0.70801 1.6602 2.3682 0 7.1289-0.21973 4.7852-0.21973 7.1533-0.21973 0.5127 0 0.5127 0.39062 0 0.41504-0.07324 1.2451-0.04883 0.80567-0.04883 1.2207 0 0.43945 0.04883 1.3428 0.04883 0.87891 0.04883 1.3184 0 0.29297-0.5127 0.29297-1.6846 0-5.127-0.0977-3.418-0.0977-5.127-0.0977-3.1494 0-3.5645 0.0488-1.0986 0.12207-1.0986 0.90332 0 2.1973 0.12207 6.5918t0.12207 6.5918q0 0.73242-0.58594 0.73242-0.48828 0-1.4648-0.0977-0.95215-0.12207-1.4648-0.12207-0.41504 0-1.2695 0.0732-0.85449 0.0733-1.2695 0.0733-0.61035 0-0.61035-0.53711 0-2.71 0.21973-8.1543 0.24414-5.4443 0.24414-8.1543 0-2.5146-0.5127-16.357v-0.31738q-0.02441-0.5127 0.61035-0.58594 0.19531 0 3.1006 0.07324 3.833 0.07324 7.1045 0.02441 4.4189-0.04883 11.255-0.48828 0.92773-0.07324 1.0498 0.80566-0.02441 0.65918 0.09766 2.002 0.29297 1.8799 0.29297 2.4414z"/>
  <path style="fill:#4d4d4d" d="m77.689 100.97q0 7.251-4.6387 12.476-4.834 5.4199-12.012 5.4199-7.2021 0-12.012-5.3955-4.6387-5.2002-4.6387-12.5 0-7.2266 4.6875-12.476 4.834-5.4443 11.963-5.4443 7.1533 0 11.987 5.4443 4.6631 5.2246 4.6631 12.476zm-5.8838-0.0733q0-4.7852-2.9785-8.3252-3.125-3.7598-7.8369-3.7598-4.6631 0-7.7637 3.8086-2.9297 3.5645-2.9297 8.3496 0 4.7607 2.9297 8.3252 3.1006 3.8086 7.7637 3.8086 4.7363 0 7.8613-3.8086 2.9541-3.5644 2.9541-8.3984z"/>
  <path style="fill:#4d4d4d" d="m101.22 86.325q-0.48828 0.80566-1.3428 2.4414-0.26856 0.75684-0.95215 2.1484-0.14648 0.21973-0.39062 0.21973 0.02441 0-2.3682-0.85449-2.3682-0.87891-3.9062-0.87891-4.4922 0-4.4922 3.9551 0 2.1973 3.1494 3.833 5.2979 2.7588 5.8594 3.1738 3.1494 2.5146 3.1494 6.7871 0 5.4688-4.3213 8.6182-3.8818 2.832-9.5459 2.832-2.6367 0-2.832-0.58594-0.09766-0.92773-0.43945-2.71-0.19531-0.73242-0.61035-2.1973-0.07324-0.21972-0.07324-0.41503 0-0.3418 0.36621-0.3418 0.58594 0 1.7822 0.12207 1.2207 0.12207 1.8311 0.12207 7.5684 0 7.5684-4.8828 0-2.3926-3.0518-4.1504-5.5664-3.1738-5.6885-3.2959-3.0762-2.4902-3.0762-6.6895 0-4.541 2.9785-7.2754 2.9053-2.6367 7.5195-2.6367 1.9531 0 4.4922 0.63476 2.7588 0.70801 4.1504 1.709 0.12207 0.09766 0.24414 0.31738z"/>
  <path style="fill:#4d4d4d" d="m124.56 86.325q-0.48828 0.80566-1.3428 2.4414-0.26856 0.75684-0.95215 2.1484-0.14649 0.21973-0.39063 0.21973 0.0244 0-2.3682-0.85449-2.3682-0.87891-3.9062-0.87891-4.4922 0-4.4922 3.9551 0 2.1973 3.1494 3.833 5.2978 2.7588 5.8594 3.1738 3.1494 2.5146 3.1494 6.7871 0 5.4688-4.3213 8.6182-3.8818 2.832-9.5459 2.832-2.6367 0-2.832-0.58594-0.0977-0.92773-0.43946-2.71-0.19531-0.73242-0.61035-2.1973-0.0732-0.21972-0.0732-0.41503 0-0.3418 0.36621-0.3418 0.58594 0 1.7822 0.12207 1.2207 0.12207 1.831 0.12207 7.5684 0 7.5684-4.8828 0-2.3926-3.0518-4.1504-5.5664-3.1738-5.6885-3.2959-3.0762-2.4902-3.0762-6.6895 0-4.541 2.9785-7.2754 2.9053-2.6367 7.5195-2.6367 1.9531 0 4.4922 0.63476 2.7588 0.70801 4.1504 1.709 0.12207 0.09766 0.24414 0.31738z"/>
  <path style="fill:#4d4d4d" d="m149.91 111.47q0 0.46387-0.53711 0.43946-0.87891-0.0488-2.4902-0.0488-0.58593 0-0.68359 0.0732-0.19531 0.12207-0.19531 0.68359 0 0.8545 0.12207 2.5879 0.14648 1.709 0.14648 2.5635 0 0.53711-0.61035 0.63477-0.83008 0.14648-2.8564 0.14648-3.418 0-3.418-0.53711 0-0.70801 0.26855-2.6856 0.26856-1.9775 0.26856-2.9053 0-0.56152-0.41504-0.56152-1.9775 0-5.9326 0.12207-3.9307 0.12207-5.9082 0.12207-1.4648 0-1.4648-3.0029 0-2.3682 0.46387-2.9297 1.6846-1.9287 4.834-5.9082 3.9307-5.5176 6.1035-8.8135 0.68359-1.0742 2.0996-3.1982 0.39062-0.5127 0.75684-0.5127 1.6846 0 5.1514 1.2695 0.75684 0.26855 0.75684 0.90332 0 1.2451-0.19531 3.7598-0.1709 2.4902-0.1709 3.7354 0 1.123-0.0244 3.8574-0.0488 2.4658-0.0244 3.8574v1.9775q0.63477 0 1.8555-0.0977 1.2451-0.0977 1.8555-0.0977 0.19531 0 0.19531 0.41504 0 0.6836 0.0244 2.0752 0.0244 1.3672 0.0244 2.0752zm-9.1064-17.407q0-0.19531-0.14648-0.29297-0.21973 0-0.63477 0.83008-0.24414 0.53711-0.51269 1.0498-4.2236 5.6641-8.4473 11.426 0.12207 0.26856 1.9775 0.26856h1.001q4.0772 0 6.0791-0.12207 0.0244-3.0029 0.0732-6.0059 0.0977-3.833 0.41504-5.8594 0.19531-1.1719 0.19531-1.2939z"/>
  <path style="fill:#4d4d4d" d="m183.23 116.92q0.0488 0.53711-0.61035 0.53711-0.36621 0-1.7822-0.6836-1.3916-0.708-1.7822-1.001-4.4922 3.0518-10.645 3.0518-7.1777 0-11.816-5.3711-4.3945-5.0781-4.3945-12.378 0-7.4707 4.3213-12.549 4.5654-5.3711 11.89-5.3711 3.7598 0 7.2266 1.7822 3.4912 1.7578 5.5664 4.834 0.31738 0.46387 0.31738 0.70801 0 0.3418-1.7578 2.2705-1.7334 1.9043-2.002 1.9043-0.19531 0-1.4892-1.4893-1.5625-1.8066-2.9785-2.7588-2.2217-1.4893-4.6387-1.4893-4.6143 0-7.5684 3.8574-2.6856 3.5156-2.6856 8.3008 0 4.6631 2.7588 8.252 3.0029 3.8818 7.544 3.8818 4.4678 0 8.2031-2.4414-0.0488-0.65918-0.41504-4.6387-0.29297-2.832-0.29297-4.6143 0-0.41503 0.53711-0.41503 0.46387 0 1.3916 0.0732 0.92774 0.0488 1.3916 0.0488t1.416-0.0488q0.95215-0.0488 1.416-0.0488 0.51269 0 0.51269 0.78125 0 0.85449-0.0732 2.5879-0.0488 1.709-0.0488 2.5635 0 3.5156 0.46387 9.5215l0.0244 0.3418z"/>
 </g>
</svg>
