<svg xmlns:rdf="http://www.w3.org/1999/02/22-rdf-syntax-ns#" xmlns="http://www.w3.org/2000/svg" height="56.996mm" width="56.996mm" version="1.1" xmlns:cc="http://creativecommons.org/ns#" xmlns:dc="http://purl.org/dc/elements/1.1/" viewBox="0 0 201.95312 201.95508">
 <g transform="translate(.67309 .86230)">
  <path style="fill:#4d4d4d" d="m100.3-0.8623a100.98 100.98 0 0 0 -100.97 100.97 100.98 100.98 0 0 0 100.97 100.98 100.98 100.98 0 0 0 100.98 -100.98 100.98 100.98 0 0 0 -100.98 -100.97zm0 11.916a89.062 89.062 0 0 1 89.062 89.061 89.062 89.062 0 0 1 -89.062 89.062 89.062 89.062 0 0 1 -89.061 -89.062 89.062 89.062 0 0 1 89.061 -89.061z"/>
  <path style="fill:#4d4d4d" d="m100.56 19.172c-0.35634 0.84799-0.72061 1.5627 0.26368 1.0312 0.0804-0.37966 0.19433-0.70718 0.32617-1.002a80.951 80.951 0 0 0 -0.58985 -0.0293zm7.1172 0.35547c-0.16054 1.0483-0.0703 1.7633 1.1055 0.82031 0.25139-0.21394 0.45419-0.42063 0.64844-0.62695a80.951 80.951 0 0 0 -1.7539 -0.19336zm5.1582 0.70703c-0.1766 3.9434-3.3986 2.0764-3.6602 1.6621 1.8386 1.9379-2.0642 0.3781-3.3281 2.5195-0.44725-0.28312-0.66566-0.43877-0.94922-0.63086 0.89698 0.86564 1.74 2.2376-0.3125 3.0664-2.8296 0.71267-4.2457-0.55955-3.5117 1.7754-2.1469 1.0756-2.2985 1.2753-4.7637 4.1035-2.3209 4.8756 0.38595 1.8732 0.11328 5.8672-0.93313 0.22797 6.1789 2.3112 5.3008 4.4258 5.0638-1.556 0.48901 4.6311 3.1621 6.0703-0.45357 1.2545 2.1162 0.95696 2.0703-2.4668-1.5033-3.6915 4.367-2.5925 3.9121-6.4316-2.8332-2.6688 1.8149-4.4596 0.56445-4.6445 0.36893-1.374 0.007-5.9777 3.8359-3.2715 2.072-0.83596 2.1144 3.0811 3.9492 2.8203-2.6085 1.4789-0.0466 2.4636-1.4668 3.7246 2.7559-0.49684 0.37767 1.8721 2.7188 0.26562 0.89446 0.64806 1.5828-1.232 2.0215-2.0723 1.2266-1.5379 0.73647 2.0784 1.2422 1.9199 0.0109 1.7597 0.26132 0.52916 0.68359 2.1602 0.14178 1.3897-1.0043 1.616 0.21876 2.4668 0.44259 0.9735 0.95265 0.92188 0.67578 2.0312 2.3425-0.72512 1.5625 0.72675 0.53711 1.3242 1.0172-0.36795 2.1304-0.53682 1.4961 0.81836 2.023 0.25261 1.5008 3.0457-1.8066 3.0469-1.9706 3.5881-7.0763-1.0891-8.916 2.3711-3.794 1.4469-5.7887 5.0321-1.0156 0.90234 5.0913-1.9694 2.5688 1.185 2.4824 1.4961-1.1633 0.90937 3.4088 3.4846 3.1602 3.582-2.3759 0.97584-6.9744 2.7662-3.4356 0.07031 2.2659 0.17677 0.36483-2.1439-1.416-0.07031-1.2849 0.44936-2.048 0.62687-3.6113 1.5801-1.7996-0.91236-0.17139 4.7965-2.0312 2.4824-2.356 1.7226-3.0181-0.1476-3.6113 3.1602-1.2491-2.5741-1.0082 3.5719-1.8066 1.6934 0.84094-3.2309-1.4123-0.3374-0.45117 0.45117-1.7809 0.45878 1.7675 2.2073-0.125 1.8477-0.342 0.16561 0.0257 1.2585-1.5664 1.7637-0.89008 1.3491-1.7248 1.3834-3.7246 2.5957-1.1237 0.14866-0.75406 3.8223-0.63281 4.9219 1.3074 1.741-1.1224 6.0096-1.3984 2.0742-1.638-0.23049 0.55685-3.8586-2.6309-3.8516-1.7415-0.71587-2.7323-0.94554-5.6074-0.54883 2.2707 0.56858 0.35152 2.4395-1.5332 0.37695-2.9999-0.04084-3.4495 0.74932-4.9004 1.541-2.7071 0.7669-0.28002 3.5264-2.1953 6.4414-0.35032 1.6976 0.67044 5.2592 3.1973 5.5625 4.0342 1.0354 3.3553-4.6881 7.6894-3.6523-0.81889 3.516-1.3653 2.6856-2.1504 5.8438 0.17866 1.4059 5.9445-0.38701 5.207 1.7422-0.47619 2.0041-1.0043 5.3 1.5371 6.1973 3.0524-1.7567 5.3539 3.1044 6.5195-1.2656 1.7086-1.6829 6.2874-3.4727 3.3301 0.45898 1.2521 2.0834 1.5401-3.9645 2.8477-1.834 2.0344 1.7368 5.4649 1.3875 6.7109 0.93164 1.0977-0.16775-0.70293 1.2113 1.3887 0.90234 0.90951 1.0933 0.006 1.1951 2.7129 2.3379 0.4597 2.4036 3.1409 1.5114 4.8476 2.4024 2.6448 0.38753 2.885 0.90154 3.8379 3.7246 1.8591 0.75232-1.8101 1.9938-0.79101 2.7656-0.71386 0.39777-1.3674 0.70294-0.78907 0.61914 2.5728-1.3791-0.41458 2.1974 1.3535 0.33985-1.2018-2.8905 5.0576-0.88123 0.22656-0.0176 1.7371 0.53782 1.4872 0.12073 2.2559-0.66016 0.81537-1.1338 1.8124-0.0369 2.709 0.22461 1.615-0.71649 0.45573 2.6956 1.8613 1.2988 2.3049-0.13311 4.9875 0.42914 6.9414 2.4258 3.8448-0.45575 2.5868 5.7774 0.22461 6.0938-0.79216 2.2965-2.1629 2.231-1.8047 3.3867 0.37252 3.2174-0.68479 6.1437-1.9785 8.8535-2.1017 1.1108-3.3671 1.4866-5.5645 2.3535-2.3826 1.4705-1.3854 2.073-1.7285 5.0762-2.727 5.0029-1.01 0.3719-2.8027 3.127 0.13479 3.4607-3.63 5.6296-6.0957 3.3848 1.501 1.5831 3.4596 5.3008-0.80664 5.8691-4.3371-1.072 0.13217 4.4-4.8359 2.8203 1.5108 2.9827 1.5631 1.6458 1.2754 2.9024-0.2239 2.2655-4.3196 4.546-0.34179 5.8906-0.11528 2.1301-2.453 3.8394-2.1738 5.4277 1.4361 1.6918-0.21257 2.0307-1.2188 4.3555-1.1528-1.3392 0.28924-0.69081-1.9414-1.1973-0.88956-0.83522 0.37651-1.6979 0.22657-1.8047-0.7431 0.86902-1.5834-0.0162-1.2422-1.4668-1.4883-0.21236-0.42389-0.83694-1.0156-1.8066-1.1444-1.1726 0.41976-1.7613-0.22656-2.8203-0.085 0.43809-3.0459-1.3878-0.90234-2.3711 0.57446 2.2359 0.93309-0.86626 0.56445-0.78906 0.44688-1.847-0.46212-3.9679 0.11328-4.9648-2.6708 1.4044-0.71598-3.3063-2.2578-5.6426 1.6573-2.328 0.991-6.2524 1.125-9.0449 0.0388-3.0071 0.13844-6.2613 0.14844-9.2266 0.80228-3.9289-2.5329-5.8861-5.6426-7.2012-1.8418-2.2888-3.0158-4.9987-4.4355-7.8672-3.2973-1.7079-1.5686-5.0257-1.0137-6.0664-2.3506 0.43359 0.27354-4.0322 1.373-4.3711 0.6579-1.0032 1.9068-1.4061 1.3359-3.5078 0.68429-2.103-2.5573-5.861-2.709-2.3691-1.2211-0.30325-3.7326-0.75083-3.6113-1.6934-2.6376-1.2816-1.2965-0.96468-3.6641-3.752 0.4783-1.5062-4.6746-0.56843-5.8691-3.2148-1.842-2.2953-4.331 0.99524-6.8965-1.5859-1.8988-1.2083-6.2954-2.7586-5.2207-4.8438 0.91086-2.8121-3.9079-5.2693-2.9512-6.4648-2.5507-1.6368-2.0889-5.2888-4.459-7.0508-1.7923 0.73377 1.6466 5.7919 1.9922 6.5664 0.3703 2.7423 2.765 5.9933-0.4668 2.7402-1.1512 0.01588 0.59315-2.4188-1.5879-2.9414-0.72279-1.2211-0.72213-2.9797-2.1133-6.3047 0.30575-3.8251-4.7764-3.5763-3.8594-7.3418-0.31028-2.511 0.41136-0.65748-0.91992-2.4512-0.81291-2.8142 0.43095-5.9234 1.5117-8.6582 1.4436-4.032 1.1862-2.1915 1.1582-5.2207 1.1028-2.4256 2.4122 1.5242 1.4102 0.64258-0.0129 1.3991 1.6844-2.1606 0.56446-3.0469 0.52756-0.89952-0.89792-0.64017-0.79102-1.918 0.10567-0.75673-1.0019-0.55018-1.1289-1.1289-1.6946-0.51147-0.55946-0.7718-0.56446-1.8047-0.68961 0.46778 2.1836-1.9375-0.15625-1.1641-1.0883-0.92574 1.6985-2.9063-0.84765-2.1426-0.37159-1.8329 1.5995-3.2931 0.89257-3.0137-0.30838-1.9074-0.5956-4.318-0.91992-6.7461a80.951 80.951 0 0 0 -39.822 69.608 80.951 80.951 0 0 0 80.947 80.95 80.951 80.951 0 0 0 80.95 -80.95 80.951 80.951 0 0 0 -68.41 -79.876zm-53.791 25.264c0.28551 0.0037 0.75689 0.09889 1.4902 0.32227-1.1878-0.0089 1.3257 0.53298 0.70703 1.5703 2.164 3.3009-0.96663 1.3098-1.5312 0.33203 0.35699-0.53032-1.9032-2.2406-0.66602-2.2246zm69.088 4.9492 0.45117 0.11328c-2.1356 2.0785-1.2569 2.714-0.30468 3.0918 1.1696-0.33298 1.0567 1.6363 1.4004 1.5234-0.70184 0.77078 1.4023 1.8395-0.41797 1.7051 0.25761-1.6458-3.0656 1.1882-1.3223-0.77539-0.34771-0.0911-4.5076 0.34195-3.7559-1.3691 1.6785 0.05478 1.5738-2.771 3.9492-4.2891z"/>
 </g>
</svg>
