<svg xmlns:rdf="http://www.w3.org/1999/02/22-rdf-syntax-ns#" xmlns="http://www.w3.org/2000/svg" viewBox="0 0 201.95314 201.95508" height="56.996mm" width="56.996mm" version="1.1" xmlns:cc="http://creativecommons.org/ns#" xmlns:dc="http://purl.org/dc/elements/1.1/">
 <path style="fill:#4d4d4d" d="m100.98 0a100.98 100.98 0 0 0 -100.98 100.98 100.98 100.98 0 0 0 100.98 100.98 100.98 100.98 0 0 0 100.97 -100.98 100.98 100.98 0 0 0 -100.97 -100.98zm0 11.916a89.062 89.062 0 0 1 89.062 89.061 89.062 89.062 0 0 1 -89.062 89.062 89.062 89.062 0 0 1 -89.061 -89.062 89.062 89.062 0 0 1 89.061 -89.061z"/>
 <g style="fill:#4d4d4d">
  <path style="" d="m149.67 96.451q0 7.4707-4.4824 21.182-5.19 15.91-10.64 15.91-7.207 0-8.2617-4.4824-0.79101-3.4277-1.582-3.4277 0.0879 0-5.1856 3.252-5.2734 3.252-10.547 3.252-11.689 0-18.545-8.6133-6.416-7.998-6.416-20.039 0-13.008 7.1191-21.533 7.6465-9.0527 20.391-9.0527 7.3828 0 13.887 4.2188 6.5918 4.2188 6.6797 4.2188 1.9336 0 1.9336-2.6367 0-11.074-7.3828-19.775-7.7344-9.0527-18.545-9.0527-18.984 0-31.113 16.523-10.986 14.941-10.986 34.629 0 20.303 10.811 34.805 12.041 16.084 31.641 16.084 2.373 0 2.373 1.4941v10.02q0 1.8457-2.373 1.8457-25.313 0-41.309-19.863-14.854-18.457-14.854-44.385 0-24.258 15.381-43.594 16.436-20.742 40.078-20.742 22.764 0 33.486 19.6 8.4375 15.381 8.4375 40.166zm-17.93 4.9219q0-6.5039-4.5703-10.811-4.4824-4.3066-10.986-4.3066-6.7676 0-11.25 4.6582-4.3945 4.5703-4.3945 11.338 0 6.5039 3.0762 11.162 3.5156 5.4492 9.668 5.4492 7.5586 0 13.008-5.0098 5.4492-5.0977 5.4492-12.48z"/>
 </g>
</svg>
